<svg width="347" height="128" viewBox="0 0 347 128" fill="none" xmlns="http://www.w3.org/2000/svg">
    <g clip-path="url(#clip0_702_52)">
        <path d="M337.932 29.0849C337.932 30.6212 337.41 31.8493 336.372 32.7693C335.328 33.6892 333.836 34.1515 331.89 34.1515H323.897V23.8643H331.736C333.682 23.8643 335.201 24.2903 336.294 25.1423C337.388 25.9943 337.932 27.2768 337.932 28.9807V29.0849ZM347 52.5777L338.24 39.7845C340.527 38.9325 342.382 37.5911 343.797 35.7648C345.217 33.9385 345.925 31.5774 345.925 28.6771V28.5728C345.925 24.8523 344.736 21.9519 342.364 19.8718C339.991 17.7918 336.671 16.7494 332.398 16.7494H316.004V52.5731H323.893V41.1077H330.093L337.778 52.5731H347V52.5777ZM296.131 37.582H286.601L291.364 25.9625L296.127 37.582H296.131ZM310.474 52.5777L295.106 16.4957H287.83L272.461 52.5777H280.504L283.784 44.5428H298.948L302.228 52.5777H310.474ZM266.569 52.5777V16.7494H258.68V52.5731H266.569V52.5777ZM243.053 34.7678C243.053 36.372 242.79 37.8222 242.259 39.1183C241.729 40.4144 240.998 41.5428 240.055 42.4945C239.116 43.4507 237.982 44.1848 236.648 44.6969C235.314 45.209 233.849 45.4628 232.243 45.4628H226.147V23.8643H232.243C233.849 23.8643 235.319 24.1272 236.648 24.6574C237.982 25.1876 239.116 25.9263 240.055 26.8825C240.994 27.8387 241.729 28.9807 242.259 30.313C242.79 31.6454 243.053 33.0956 243.053 34.6636V34.7678ZM251.3 34.6636V34.5593C251.3 32.0351 250.837 29.6877 249.916 27.5215C248.996 25.3553 247.689 23.4701 245.997 21.8658C244.305 20.2616 242.291 19.0063 239.95 18.1044C237.61 17.2026 235.042 16.7494 232.239 16.7494H218.254V52.5731H232.239C235.038 52.5731 237.61 52.1109 239.95 51.1909C242.291 50.271 244.305 49.0066 245.997 47.4024C247.689 45.7981 248.996 43.9038 249.916 41.7195C250.837 39.5352 251.3 37.1832 251.3 34.659V34.6636ZM211.186 52.5777V45.567H191.722V38.0443H208.628V31.0336H191.722V23.7646H210.932V16.754H183.933V52.5777H211.186ZM175.328 52.5777V16.7494H166.823L157.396 31.8992L147.97 16.7494H139.465V52.5731H147.253V29.3387L157.242 44.4884H157.446L167.539 29.1846V52.5731H175.328V52.5777Z" fill="#201E1E"/>
        <path d="M259.116 87.0327C259.116 89.2035 258.88 91.202 258.404 93.0328C257.928 94.8636 257.238 96.4588 256.335 97.8138C255.433 99.1688 254.344 100.22 253.078 100.968C251.813 101.716 250.389 102.087 248.805 102.087C247.222 102.087 245.784 101.702 244.496 100.936C243.208 100.166 242.11 99.1054 241.203 97.7504C240.3 96.3954 239.597 94.7911 239.098 92.9376C238.599 91.0842 238.349 89.072 238.349 86.9059C238.349 84.7397 238.585 82.723 239.062 80.8741C239.538 79.0206 240.227 77.4299 241.13 76.093C242.037 74.7607 243.122 73.7184 244.387 72.9752C245.653 72.2274 247.077 71.8558 248.66 71.8558C250.243 71.8558 251.681 72.241 252.97 73.0069C254.258 73.7773 255.356 74.8377 256.263 76.1927C257.166 77.5477 257.869 79.152 258.368 81.0055C258.867 82.859 259.116 84.8711 259.116 87.0373M269.84 86.9013C269.84 83.4662 269.341 80.2577 268.347 77.2758C267.354 74.2939 265.939 71.6927 264.106 69.4812C262.273 67.2651 260.055 65.5385 257.456 64.2968C254.857 63.0551 251.972 62.4343 248.805 62.4343C245.639 62.4343 242.754 63.0687 240.155 64.3331C237.556 65.5974 235.324 67.3376 233.469 69.5537C231.613 71.7697 230.175 74.38 229.159 77.3846C228.143 80.3892 227.63 83.6113 227.63 87.0463C227.63 90.4814 228.129 93.7488 229.123 96.7081C230.116 99.6673 231.532 102.255 233.364 104.471C235.197 106.687 237.415 108.414 240.014 109.655C242.613 110.897 245.499 111.518 248.665 111.518C251.831 111.518 254.716 110.883 257.315 109.619C259.915 108.355 262.146 106.615 264.002 104.399C265.857 102.182 267.295 99.5858 268.311 96.6039C269.327 93.6219 269.84 90.3908 269.84 86.9104V86.9013ZM209.849 95.5117C209.849 97.5918 209.136 99.2867 207.698 100.596C206.274 101.906 204.26 102.563 201.67 102.563C199.08 102.563 197.043 101.897 195.573 100.565C194.09 99.2323 193.355 97.5238 193.355 95.4482C193.355 93.3727 194.067 91.7549 195.505 90.4633C196.93 89.1763 198.944 88.5328 201.534 88.5328C204.124 88.5328 206.161 89.1899 207.63 90.4995C209.114 91.8092 209.849 93.4815 209.849 95.5162V95.5117ZM218.399 67.6141C217.361 66.7984 216.295 66.0778 215.21 65.4207C214.126 64.7636 212.992 64.2243 211.817 63.7711C210.642 63.318 209.372 62.9917 208.016 62.7651C206.66 62.5385 205.167 62.4252 203.539 62.4252C200.01 62.4252 196.934 63.0914 194.308 64.4237C191.686 65.7561 189.513 67.5869 187.794 69.9162C186.074 72.2456 184.795 74.9918 183.961 78.155C183.121 81.3182 182.704 84.7306 182.704 88.3923C182.704 93.137 183.212 96.8984 184.233 99.6809C185.249 102.459 186.619 104.711 188.338 106.429C190.012 108.101 191.935 109.365 194.108 110.226C196.281 111.083 198.926 111.513 202.046 111.513C204.627 111.513 207.023 111.119 209.241 110.326C211.459 109.533 213.369 108.405 214.975 106.936C216.58 105.468 217.846 103.728 218.776 101.716C219.701 99.7036 220.168 97.4785 220.168 95.0359C220.168 92.5932 219.738 90.3591 218.88 88.4602C218.023 86.5614 216.843 84.9798 215.351 83.7155C213.859 82.4511 212.094 81.4904 210.057 80.8333C208.021 80.1762 205.825 79.8499 203.475 79.8499C201.126 79.8499 199.189 80.1671 197.674 80.797C196.158 81.4315 194.811 82.1294 193.636 82.8998C193.818 81.3499 194.135 79.8952 194.584 78.5402C195.038 77.1716 195.659 75.9979 196.449 75.0281C197.238 74.0447 198.191 73.2788 199.297 72.6987C200.404 72.1323 201.706 71.8513 203.199 71.8513C204.192 71.8513 205.122 71.9419 205.979 72.1232C206.841 72.3045 207.653 72.5537 208.424 72.8709C209.195 73.1882 209.939 73.5824 210.665 74.0583C211.391 74.5341 212.135 75.0643 212.906 75.6535L218.404 67.6186L218.399 67.6141ZM160.921 72.1912L149.59 83.5569L151.218 90.1778H155.56C158.544 90.1778 160.84 90.6989 162.446 91.7367C164.051 92.7745 164.854 94.2926 164.854 96.2685C164.854 98.0767 164.233 99.4997 162.99 100.528C161.747 101.566 160.128 102.087 158.136 102.087C155.691 102.087 153.577 101.602 151.79 100.628C150.003 99.6583 148.297 98.2444 146.664 96.3909L139.47 103.247C141.506 105.699 144.029 107.698 147.036 109.225C150.044 110.752 153.7 111.509 157.996 111.509C160.617 111.509 162.994 111.124 165.131 110.358C167.267 109.587 169.068 108.504 170.547 107.104C172.03 105.704 173.169 104.054 173.963 102.155C174.766 100.256 175.16 98.1764 175.16 95.9196C175.16 93.6627 174.798 91.8183 174.063 90.2594C173.337 88.7004 172.375 87.3908 171.2 86.3258C170.012 85.2654 168.642 84.4406 167.095 83.8514C165.544 83.2623 163.961 82.8363 162.332 82.5644L174.412 71.1081V63.2455H142.246V72.1957H160.908L160.921 72.1912Z" fill="#1CADE4"/>
        <path fill-rule="evenodd" clip-rule="evenodd" d="M57.4192 15.6437C45.9064 16.541 37.5145 21.3719 29.744 28.446C20.7533 36.6303 14.457 50.5927 15.827 66.0642C17.9726 90.3047 39.6918 110.285 66.664 107.689C73.4955 107.031 79.1022 104.938 84.2916 102.201C99.9868 93.9211 109.994 75.4586 108.025 57.1774C106.95 47.1758 103.702 39.8434 97.9591 32.5699C97.0746 31.4505 96.2399 30.6121 95.31 29.5925C85.8929 19.1785 71.4769 14.5425 57.4192 15.6437ZM19.2654 62.2213C19.2654 23.0713 65.6207 5.05746 92.112 31.6046L96.9884 37.3781C98.195 39.0684 99.9369 41.9325 100.858 44.1667C113.6 75.0915 91.0868 104.317 61.7694 104.317C38.8209 104.317 19.2699 85.1928 19.2699 62.2213H19.2654Z" fill="#20AEE4"/>
        <path fill-rule="evenodd" clip-rule="evenodd" d="M90.5559 116.458C94.2801 114.455 97.8138 112.225 100.595 109.905C107.313 104.294 111.382 99.2685 115.745 91.8818C119.937 84.7805 122.822 75.0236 123.543 66.4766C124.233 58.3013 122.84 54.3315 122.967 50.9462C118.367 51.1728 119.265 51.2861 119.746 55.1291C120.055 57.5989 120.186 60.3043 120.1 62.8149C119.011 93.1824 96.3123 117.631 64.9038 119.802C65.8882 118.066 68.0428 117.323 68.4647 115.941C62.427 115.334 63.7879 115.402 57.3828 121.411C58.0496 122.888 60.2905 124.705 61.5153 126.115C63.0757 127.909 64.2007 128.249 68.1653 127.846L64.3776 123.437C74.076 123.083 83.0168 120.514 90.5605 116.458" fill="#20AEE4"/>
        <path fill-rule="evenodd" clip-rule="evenodd" d="M5.44808 36.014C5.20766 37.292 3.77877 40.2558 3.23442 41.928C-3.50181 62.6201 0.490031 82.7321 13.2594 99.7308C19.4105 107.92 32.8965 118.438 41.919 120.169C42.5949 119.43 42.9759 118.062 43.1256 116.979C42.1186 116.177 39.3334 115.402 37.7366 114.636C33.6269 112.664 29.2268 110.177 25.8518 107.281C23.5611 105.314 22.0006 104.127 19.8459 101.743C18.4942 100.247 17.5733 99.2232 16.2805 97.6144C5.81098 84.5493 1.3882 66.8482 4.87652 49.7589C5.52066 46.6093 7.03121 40.2966 8.74589 38.1893C9.32198 39.1863 9.54879 40.7271 9.9389 41.7694L10.5241 42.8933L11.1365 42.1274C12.7604 39.7256 12.9872 38.7603 12.4247 36.9476C11.8486 35.0986 11.2317 32.4385 10.456 30.6303C8.53722 31.0109 6.13305 31.881 3.89217 32.4928C2.18203 32.9551 2.17749 33.0004 1.44263 34.514C0.966331 35.4929 0.385699 36.3403 0.0364127 37.5458L5.44808 36.0186V36.014Z" fill="#20AEE4"/>
        <path fill-rule="evenodd" clip-rule="evenodd" d="M24.5635 12.4986C24.9264 13.3144 25.8472 14.4337 26.3507 15.2948C28.6869 14.47 34.0985 9.11794 45.8926 5.82787C54.0033 3.56652 63.0621 3.04083 71.6581 4.46381C79.3787 5.7463 86.7954 8.63757 92.5563 12.2313C97.7593 15.476 100.232 17.751 104.364 22.029C105.199 22.8945 105.371 22.8673 106.092 23.8553C106.746 24.7526 107.226 25.0743 107.839 26.1619L102.681 25.1196C103.049 26.2073 103.62 26.8916 104.183 27.8251C105.534 30.0819 105.09 29.4384 110.107 30.5306C111.59 30.8523 112.747 31.3735 113.758 30.8478C114.303 28.9218 114.729 26.4203 115.174 24.3946C115.6 22.4504 114.906 21.9383 113.668 20.1392C113.441 19.8084 113.572 19.9715 113.3 19.609C113.259 19.5546 113.205 19.4821 113.164 19.4323L112.711 18.9066C111.84 20.2616 112.035 22.7631 111.232 24.2042C110.579 23.7193 110.179 23.0169 109.508 22.2148L103.842 16.3235C88.061 1.65864 66.5549 -3.3535 45.2666 2.21605C39.8005 3.64356 27.5483 8.95027 24.5635 12.4986Z" fill="#20AEE4"/>
        <path fill-rule="evenodd" clip-rule="evenodd" d="M57.8092 60.0098L67.6165 58.0022C69.4944 57.5807 69.0499 57.3542 69.5307 55.5279C66.2284 52.9176 58.3037 43.7588 56.902 42.7709L54.6294 42.9612C54.2755 44.4477 53.577 46.1425 53.1097 47.6471C52.5926 49.3012 52.0528 50.7876 51.5357 52.3239C51.0186 53.8556 50.5377 55.3964 50.007 57.0097C49.1043 59.7379 48.5917 59.4071 49.9072 61.6684L57.8138 60.0143L57.8092 60.0098Z" fill="#20AEE4"/>
        <path fill-rule="evenodd" clip-rule="evenodd" d="M58.8024 60.336L50.1428 62.1442C49.8888 63.9252 49.3354 63.5989 50.6101 64.7727C52.5198 66.5265 53.9033 67.4872 55.9083 69.7576C57.496 71.7153 60.0226 73.3015 61.7645 75.2864L64.1596 74.9465C65.2665 71.1307 69.8435 61.8814 70.2018 59.1487C69.3309 58.682 69.5622 58.6276 68.8727 58.0974L58.8024 60.336Z" fill="#20AEE4"/>
        <path fill-rule="evenodd" clip-rule="evenodd" d="M64.382 75.2773C66.5457 77.3302 65.3074 76.7637 72.7921 75.9616C79.3559 75.2592 80.2813 75.9888 81.4199 73.4691C80.0908 70.8407 76.7249 66.0189 74.8651 63.0506C74.0939 61.8179 73.4181 60.9524 72.6787 59.5928L70.6691 59.6563L64.3774 75.2773H64.382Z" fill="#20AEE4"/>
        <path fill-rule="evenodd" clip-rule="evenodd" d="M47.739 68.4389L46.7637 81.7487C48.2379 82.3242 47.3897 82.868 50.4516 81.726L61.1252 77.8378L61.6333 75.4495L57.0427 71.38C56.3668 70.6413 56.3532 70.5099 55.709 69.9978C53.7131 68.1035 51.3361 66.327 49.8029 64.1155L48.0565 64.5642L47.7435 68.4434L47.739 68.4389Z" fill="#20AEE4"/>
        <path fill-rule="evenodd" clip-rule="evenodd" d="M72.9326 59.262C73.6312 60.9161 78.2717 67.7183 79.8458 70.1972C81.1613 72.2682 81.3246 73.1791 82.7988 73.1021C83.5745 72.2184 86.1012 61.3602 86.7544 58.7681C86.9131 58.1382 87.3214 56.9327 87.3713 56.3934C87.4983 55.0384 87.0356 55.7635 86.5185 54.4085L75.2098 56.6699C73.2683 57.0823 73.7537 57.5943 72.9326 59.262Z" fill="#20AEE4"/>
        <path fill-rule="evenodd" clip-rule="evenodd" d="M57.1512 42.789C58.9429 44.0171 62.4222 47.7966 63.5018 48.9477C65.593 51.1728 67.6388 53.2574 69.6393 55.4417C72.488 54.6169 71.363 55.2469 72.2294 52.7499L74.3977 42.1183C72.0616 39.9566 75.1054 40.2784 65.3208 40.6591C63.6606 40.7225 62.2362 40.7588 60.5941 40.786C58.3079 40.8267 56.7928 40.3237 57.1557 42.789" fill="#20AEE4"/>
        <path fill-rule="evenodd" clip-rule="evenodd" d="M33.7856 67.8452C34.0487 68.6473 38.7664 73.809 39.719 75.087L44.1962 80.3756C44.7405 81.1324 45.9245 82.7684 46.4189 80.8378C46.8635 79.0976 47.4804 67.1337 47.4033 66.9026C47.7299 64.682 47.875 64.7002 45.7793 63.2409L36.0265 65.7833C33.8491 66.318 34.2257 65.8558 33.7902 67.8452" fill="#20AEE4"/>
        <path fill-rule="evenodd" clip-rule="evenodd" d="M42.0461 47.0534C40.6217 47.4114 40.1001 47.6697 39.7689 49.1154C39.3289 51.0414 40.5582 50.5021 40.8531 52.3012C41.5789 52.6955 42.164 53.6608 42.6494 54.3858C43.1983 55.2106 43.7063 55.9312 44.3505 56.8239C46.487 59.7922 46.233 60.7167 48.4376 60.191C49.2994 58.5913 51.9985 49.7091 53.0418 46.6637C55.1058 40.641 54.3255 41.3298 47.9477 44.2573C46.0742 45.1184 43.9422 46.0247 42.0461 47.0489" fill="#20AEE4"/>
        <path fill-rule="evenodd" clip-rule="evenodd" d="M72.2839 52.8541C72.3293 53.7468 72.2295 53.5293 72.2295 54.0731L72.4064 55.1562C72.4064 55.1562 73.0959 55.9085 73.105 55.913L73.917 56.6064L84.1869 54.4765C86.523 54.0233 85.9787 54.2363 86.8043 52.3284C84.9535 50.9961 80.0726 45.7392 78.3987 43.8223C77.1059 42.3404 77.0424 41.86 74.8242 42.1183C74.4114 43.8812 72.9825 52.129 72.2885 52.8496" fill="#20AEE4"/>
        <path fill-rule="evenodd" clip-rule="evenodd" d="M78.3989 79.1384C80.1 77.3574 81.1932 77.0039 80.9075 75.6127C78.3853 75.3 68.8004 76.7366 65.684 77.1263L64.7223 78.803C64.3685 79.3151 64.7087 78.6127 64.3413 79.3876C64.7768 81.2593 66.6094 87.563 67.4622 88.7095L69.0317 88.9859L78.3989 79.1384Z" fill="#20AEE4"/>
        <path fill-rule="evenodd" clip-rule="evenodd" d="M37.0743 52.4553C35.4277 60.7937 29.7756 67.1473 36.3803 65.2983C38.535 64.6956 44.9401 63.6805 45.8019 62.2394C46.5549 60.9796 46.3735 60.5853 46.0378 59.9282C45.2757 58.4327 41.742 54.3133 40.7985 52.1607C39.6236 51.4175 39.9321 50.0806 38.3717 50.2075C37.4236 50.8057 38.0995 50.0489 37.5143 51.345C37.2966 51.8254 37.3147 52.0202 37.0788 52.4598" fill="#20AEE4"/>
        <path fill-rule="evenodd" clip-rule="evenodd" d="M48.1924 83.5342C49.027 84.2049 55.8222 86.3213 57.3283 86.8062C59.4966 87.5086 64.881 90.0011 66.6365 89.2443C67.0266 87.6174 64.5816 81.8258 64.0055 79.5281C62.5403 78.9526 62.4133 79.2472 61.6512 78.1233L49.2221 82.501C47.9883 83.0539 48.4283 82.6551 48.1969 83.5297" fill="#20AEE4"/>
        <path fill-rule="evenodd" clip-rule="evenodd" d="M57.1967 40.5503C59.9048 40.4914 62.6174 40.3736 65.321 40.2648L72.6424 39.9204C72.7195 39.8977 72.8193 39.8524 72.8828 39.8298C74.5975 39.286 71.0321 37.0382 69.5397 35.511C68.7413 34.6953 68.0563 34.437 67.2489 33.6575C66.1874 32.6333 66.1012 32.0079 64.5771 32.0532C62.6809 32.1122 63.0438 32.0623 62.0187 33.1726L58.045 37.8041C56.6614 39.1908 56.8293 38.6832 57.1922 40.5548" fill="#20AEE4"/>
        <path fill-rule="evenodd" clip-rule="evenodd" d="M90.1296 50.6788C90.9461 51.3631 90.3836 51.3949 91.0641 51.8934C91.7445 52.3919 91.9486 52.2423 91.9577 52.2423C92.7062 52.4508 92.2888 52.0474 93.06 52.5958C94.4617 53.5928 93.5816 55.1245 92.1754 55.5732L92.3841 67.2561C93.4637 68.4298 93.7087 67.2561 94.185 69.5356C96.9883 58.0883 93.6134 47.4024 86.2693 38.9234C85.7703 38.3479 85.4029 38.0805 85.0718 37.5865C85.0173 37.6545 84.9674 37.6862 84.9493 37.8222C84.5274 40.5413 82.7311 37.6772 86.4508 44.0761C87.5939 46.0474 89.2269 48.5806 90.1341 50.6834" fill="#20AEE4"/>
        <path fill-rule="evenodd" clip-rule="evenodd" d="M41.7148 46.9719C42.554 46.1561 49.6985 42.9794 51.3451 42.3494C52.5518 41.8872 53.4091 41.8555 53.0371 40.3872C52.774 39.3585 53.3138 40.07 50.9051 38.7376C49.7121 38.076 47.1038 36.9068 46.4597 36.0367C45.2712 36.4581 44.187 36.6893 43.679 37.36L39.7824 45.635C38.5213 48.3994 40.0773 47.1169 41.7103 46.9719" fill="#20AEE4"/>
        <path fill-rule="evenodd" clip-rule="evenodd" d="M88.1292 55.7408C87.29 56.901 84.7815 68.0899 83.9514 71.1126C83.221 73.7773 83.779 74.3392 86.0017 72.8392C89.7804 70.2878 90.1977 71.1897 91.309 68.3392C91.74 67.2334 91.6447 67.4147 91.2365 65.9373L88.8504 56.7832C88.4104 55.5596 88.9502 56.2575 88.1247 55.7408" fill="#20AEE4"/>
        <path fill-rule="evenodd" clip-rule="evenodd" d="M81.0391 85.9361C82.4181 85.424 83.2301 83.7336 83.348 83.2034C83.4387 82.791 82.9216 77.7426 82.7266 77.3755C81.7422 75.5084 80.0593 78.0281 78.9706 79.1248L69.6941 88.4829C68.8776 89.5026 69.4945 88.501 69.0137 89.6566L81.0391 85.9361Z" fill="#20AEE4"/>
        <path fill-rule="evenodd" clip-rule="evenodd" d="M58.2537 30.9656C59.0657 30.526 60.9346 30.5034 62.1367 30.4717C62.9668 29.0759 62.5313 28.6272 64.8403 28.7088C65.1895 29.2209 65.9698 30.8206 66.0741 30.952C66.505 31.4868 80.0319 37.2603 81.0526 37.292C81.8782 37.3192 81.4971 37.2648 82.3499 36.9113C82.4679 36.8615 82.8943 36.6892 83.0122 36.6349C83.7108 36.3267 83.1528 36.7119 83.6155 36.3494C82.8761 36.1273 79.0476 32.162 71.5765 29.8916C65.9924 28.1967 60.9119 28.2058 54.9604 29.1937C58.4261 30.4354 55.2689 30.3629 58.2537 30.9656Z" fill="#20AEE4"/>
        <path fill-rule="evenodd" clip-rule="evenodd" d="M54.1304 91.6416C57.6414 91.2971 62.5904 91.0298 65.8701 90.3681C65.0445 89.3757 62.5995 88.927 61.2341 88.4693C47.7979 83.9783 45.0626 81.6037 49.8982 89.7518C50.9324 91.4965 50.2339 89.9648 51.9485 90.9935C53.1325 91.705 51.9576 91.85 54.1259 91.637" fill="#20AEE4"/>
        <path fill-rule="evenodd" clip-rule="evenodd" d="M59.6961 31.6454L46.3008 34.8584C46.3915 36.3222 46.1239 35.4838 46.7363 35.9687C48.9544 37.1787 50.964 38.443 53.1776 39.4672C53.2502 39.44 53.3455 39.3041 53.3772 39.363C53.595 39.7618 53.3137 39.0639 54.7018 38.8056C56.167 38.5337 55.6136 39.1228 56.7703 38.579C56.8021 38.5609 62.5993 32.4248 62.4814 31.3553C61.5378 31.0472 60.998 31.4686 59.6961 31.6499" fill="#20AEE4"/>
        <path fill-rule="evenodd" clip-rule="evenodd" d="M35.0962 75.7758C35.7494 76.7275 35.8901 78.4586 36.3119 79.6595C36.9651 81.5085 36.321 80.1716 37.6183 81.0463C38.5165 81.6535 38.0992 81.3136 38.5845 82.3288C40.1768 82.4692 43.6424 83.2623 44.8536 82.6415C45.0259 81.359 44.6222 81.5266 43.8012 80.4662L39.3466 75.155C38.7705 74.4843 38.5437 74.1897 37.8542 73.3876C37.5004 72.9752 37.3598 72.7305 37.0695 72.386C36.1259 71.2712 34.2752 69.4902 33.7308 68.2395L33.1094 68.4389L35.0962 75.7668V75.7758Z" fill="#20AEE4"/>
        <path fill-rule="evenodd" clip-rule="evenodd" d="M34.4343 76.2924L31.6763 68.9056C30.887 67.3331 30.6829 68.2259 30.0614 67.2425C28.9228 65.4388 30.8598 66.2727 31.1229 63.7757C31.3225 61.8678 30.8144 57.83 31.6627 56.3617C30.8779 52.6049 32.8375 53.0082 30.6466 51.3042C28.2878 54.0595 28.5599 64.4917 29.4127 68.4479C30.0977 71.6338 33.1914 80.5161 35.6908 81.4768C36.4121 80.0357 35.0013 77.9511 34.4343 76.2879" fill="#20AEE4"/>
        <path fill-rule="evenodd" clip-rule="evenodd" d="M86.8087 52.3329C87.1626 52.0384 87.5617 52.265 86.8223 50.2392C86.5547 49.5051 86.3506 48.8661 86.0557 48.0504C85.5295 46.5821 84.7765 45.005 84.7085 43.4733C83.4746 42.218 84.5316 41.1123 82.6717 40.079C81.2156 39.2678 81.2156 39.0276 79.9954 39.2361C79.628 39.2995 78.9339 39.4853 78.4939 39.585C76.7565 39.9657 77.0695 39.8751 76.625 41.5609C77.3009 42.5851 78.004 43.1289 79.0655 44.0534L86.8087 52.3375V52.3329Z" fill="#20AEE4"/>
        <path fill-rule="evenodd" clip-rule="evenodd" d="M32.0527 55.7318L32.5426 64.7319C33.282 63.0189 36.5163 52.8314 37.0561 52.333C37.1242 50.3707 38.0632 50.6063 36.725 49.3556C36.0582 49.2196 34.4977 49.3828 33.8763 50.0353C33.4952 50.4387 33.5406 50.774 33.087 51.3224C32.4746 52.0565 32.5744 51.1728 32.1707 52.4553C32.1797 53.7741 32.3521 54.4538 32.0527 55.7318Z" fill="#20AEE4"/>
        <path fill-rule="evenodd" clip-rule="evenodd" d="M83.9829 83.5705C85.1215 83.1445 85.6432 81.4315 86.1512 80.3574C87.5711 77.3529 90.4062 73.0341 91.3361 70.2198C90.1839 70.3513 85.802 73.1564 84.872 73.9903C84.3549 75.2773 85.1261 75.2456 84.0192 76.4737C83.1664 77.4208 83.0939 76.5009 83.2435 78.3045C83.366 79.8136 83.4295 82.288 83.9829 83.5705Z" fill="#20AEE4"/>
        <path fill-rule="evenodd" clip-rule="evenodd" d="M32.1478 48.4628C33.1004 48.6123 33.1231 48.3858 33.6811 47.7921C34.3025 47.1305 34.4477 46.777 35.0192 46.1471C36.2757 44.7603 42.3452 37.079 43.1889 36.6802L42.7625 34.7179C39.1335 36.0911 34.6926 42.5262 32.5515 46.0746C30.787 49.0021 31.9618 48.2045 32.1433 48.4673" fill="#20AEE4"/>
        <path fill-rule="evenodd" clip-rule="evenodd" d="M85.4619 84.8303C86.5823 84.3817 87.2174 83.2261 88.2834 81.9118C90.488 79.1928 93.4456 73.5281 94.0081 69.889C90.5243 72.2818 93.5318 67.3059 88.6418 76.3604L85.3349 82.5508C84.6499 83.8152 84.5637 83.7925 85.4664 84.8303" fill="#20AEE4"/>
        <path fill-rule="evenodd" clip-rule="evenodd" d="M76.7522 39.5443C78.1312 39.2905 80.2496 39.2044 81.2022 38.2482C80.7123 37.4823 78.7345 36.8615 77.5733 36.363L65.7202 31.5321C66.5912 32.5336 66.9495 32.9506 68.0473 33.7527L70.7372 36.0956C71.5038 36.7436 72.5744 38.1576 73.4499 38.3977C74.788 38.7603 75.9538 37.3736 76.7522 39.5443Z" fill="#20AEE4"/>
        <path fill-rule="evenodd" clip-rule="evenodd" d="M38.4351 82.9406C39.0066 83.7427 48.8819 90.6174 50.0341 90.9845C49.6757 89.3258 48.6188 87.9482 47.8794 86.4708C46.4505 83.6113 45.9651 86.4481 44.5498 83.2895C42.8215 83.1354 39.6371 82.2608 38.4351 82.936" fill="#20AEE4"/>
        <path fill-rule="evenodd" clip-rule="evenodd" d="M33.45 49.3737L36.3577 48.839C37.3783 46.4145 36.2851 47.7695 38.5259 46.6637C39.5783 46.1425 42.8988 38.3343 43.1211 37.3101C42.1186 38.0171 41.3293 39.2452 40.5355 40.1289L34.3209 47.5383C33.5724 48.3405 33.2957 48.268 33.4454 49.3737" fill="#20AEE4"/>
        <path fill-rule="evenodd" clip-rule="evenodd" d="M64.1416 92.9377C61.1477 92.8108 53.7538 91.918 52.3476 92.6929C52.588 93.4724 51.4448 93.2368 53.5723 93.8078L59.0929 94.6915C61.6785 94.9044 65.3936 95.1809 67.5347 94.1884C67.0448 92.5796 66.0015 93.0192 64.1371 92.9377" fill="#20AEE4"/>
        <path fill-rule="evenodd" clip-rule="evenodd" d="M70.252 93.7035C73.6678 93.1235 78.0543 90.8757 80.8214 88.9633C81.8737 88.2337 83.2029 87.4814 83.1983 86.6974C82.0507 85.7639 81.2115 86.7382 79.71 87.5312L72.8649 91.0524C69.5807 92.7518 70.37 91.8999 70.252 93.7035Z" fill="#20AEE4"/>
        <path fill-rule="evenodd" clip-rule="evenodd" d="M40.8075 85.2382C38.5939 83.7427 38.8751 83.3348 37.6276 83.6702C37.7048 83.9693 37.1196 84.0237 38.3988 85.2699C39.9275 86.7563 47.4666 92.9966 49.5079 91.8228C49.2811 90.9482 49.399 91.3243 48.8728 90.8077C48.8638 90.7987 48.2514 90.3681 48.1652 90.3092L43.7696 87.3137C42.6764 86.5932 41.8282 85.9361 40.8075 85.2472" fill="#20AEE4"/>
        <path fill-rule="evenodd" clip-rule="evenodd" d="M91.9981 66.4358L91.8439 55.5505C90.4967 55.2106 91.0455 55.0747 89.9432 54.481C89.163 55.8587 88.7729 55.2106 89.2764 57.182C89.8434 59.4116 91.2179 65.2802 91.9981 66.4358Z" fill="#20AEE4"/>
        <path fill-rule="evenodd" clip-rule="evenodd" d="M84.7948 43.573L87.6435 51.5761L89.213 52.274C89.9887 52.7816 89.5306 52.7544 90.5558 53.1759C90.9368 51.9206 90.7372 52.5595 90.2473 51.2589C89.957 50.4885 90.2065 51.5988 90.0568 50.5837C88.7186 49.564 85.8381 43.3646 84.314 41.4476L84.7948 43.573Z" fill="#20AEE4"/>
        <path fill-rule="evenodd" clip-rule="evenodd" d="M45.085 33.2179C46.3551 34.7089 46.0512 34.2965 50.2698 32.7013C50.914 32.4566 52.5288 31.9989 53.0868 31.668C54.4386 30.8705 53.495 30.6031 54.6881 29.3931C52.1977 29.5562 46.4005 31.8176 45.085 33.2224" fill="#20AEE4"/>
        <path fill-rule="evenodd" clip-rule="evenodd" d="M69.8436 92.0132C71.2362 91.8228 78.9976 87.5222 80.3902 86.5977C78.544 86.9738 76.3939 87.8167 74.3934 88.4331C70.6465 89.5887 69.9479 89.4346 69.1133 91.0388L69.4127 91.5147C69.449 91.5645 69.5261 91.6642 69.5578 91.7095C69.5941 91.7639 69.771 91.9452 69.8391 92.0132" fill="#20AEE4"/>
        <path fill-rule="evenodd" clip-rule="evenodd" d="M54.874 92.0494C57.4642 92.1627 65.28 93.0374 67.2669 92.5932C66.9675 91.6053 65.9196 91.5011 65.7835 90.9709C65.7563 90.8621 65.6747 90.853 65.6157 90.8123L54.874 92.0494Z" fill="#20AEE4"/>
        <path fill-rule="evenodd" clip-rule="evenodd" d="M49.7213 33.5805C51.182 33.4037 53.5181 33.1273 54.5796 32.3297C53.813 31.5094 53.568 31.7542 51.0096 32.8055C50.6739 32.9415 50.6467 32.9279 50.3519 33.1001C49.9345 33.3448 49.9345 33.3992 49.7168 33.5805" fill="#25B2E7"/>
    </g>
    <defs>
        <clipPath id="clip0_702_52">
            <rect width="347" height="128" fill="white"/>
        </clipPath>
    </defs>
</svg>
